HIERARCHY
ROOT hip
{
  OFFSET 0 0 0
  CHANNELS 6 Xposition Yposition Zposition Zrotation Yrotation Xrotation
  JOINT abdomen
  {
    OFFSET 0 20.6881 -0.73152
    CHANNELS 3 Zrotation Xrotation Yrotation
    JOINT chest
    {
      OFFSET 0 11.7043 -0.48768
      CHANNELS 3 Zrotation Xrotation Yrotation
      JOINT neck
      {
        OFFSET 0 22.1894 -2.19456
        CHANNELS 3 Zrotation Xrotation Yrotation
        JOINT head
        {
          OFFSET -0.24384 7.07133 1.2192
          CHANNELS 3 Zrotation Xrotation Yrotation
          JOINT leftEye
          {
            OFFSET 4.14528 8.04674 8.04672
            CHANNELS 3 Zrotation Xrotation Yrotation
            End Site
            {
              OFFSET 1 0 0
            }
          }
          JOINT rightEye
          {
            OFFSET -3.6576 8.04674 8.04672
            CHANNELS 3 Zrotation Xrotation Yrotation
            End Site
            {
              OFFSET 1 0 0
            }
          }
        }
      }
      JOINT rCollar
      {
        OFFSET -2.68224 19.2634 -4.8768
        CHANNELS 3 Zrotation Xrotation Yrotation
        JOINT rShldr
        {
          OFFSET -8.77824 -1.95073 1.46304
          CHANNELS 3 Zrotation Xrotation Yrotation
          JOINT rForeArm
          {
            OFFSET -28.1742 -1.7115 0.48768
            CHANNELS 3 Zrotation Xrotation Yrotation
            JOINT rHand
            {
              OFFSET -22.5879 0.773209 7.07136
              CHANNELS 3 Zrotation Xrotation Yrotation
              JOINT rThumb1
              {
                OFFSET -1.2192 -0.487915 3.41376
                CHANNELS 3 Zrotation Xrotation Yrotation
                JOINT rThumb2
                {
                  OFFSET -3.37035 -0.52449 3.41376
                  CHANNELS 3 Zrotation Xrotation Yrotation
                  End Site
                  {
                    OFFSET -1.78271 -1.18214 1.43049
                  }
                }
              }
              JOINT rIndex1
              {
                OFFSET -7.75947 0.938293 5.60832
                CHANNELS 3 Zrotation Xrotation Yrotation
                JOINT rIndex2
                {
                  OFFSET -2.54057 -0.884171 1.56538
                  CHANNELS 3 Zrotation Xrotation Yrotation
                  End Site
                  {
                    OFFSET -1.62519 -0.234802 1.16502
                  }
                }
              }
              JOINT rMid1
              {
                OFFSET -8.24714 1.18213 3.41376
                CHANNELS 3 Zrotation Xrotation Yrotation
                JOINT rMid2
                {
                  OFFSET -3.10165 -0.590103 1.0647
                  CHANNELS 3 Zrotation Xrotation Yrotation
                  End Site
                  {
                    OFFSET -2.48547 -0.328903 0.83742
                  }
                }
              }
              JOINT rRing1
              {
                OFFSET -8.82822 0.546677 1.51678
                CHANNELS 3 Zrotation Xrotation Yrotation
                JOINT rRing2
                {
                  OFFSET -2.60934 -0.819778 -0.0198488
                  CHANNELS 3 Zrotation Xrotation Yrotation
                  End Site
                  {
                    OFFSET -2.33842 -0.294052 0.168128
                  }
                }
              }
              JOINT rPinky1
              {
                OFFSET -8.27202 -0.0477905 -0.4584
                CHANNELS 3 Zrotation Xrotation Yrotation
                JOINT rPinky2
                {
                  OFFSET -1.82734 -0.647385 -0.700984
                  CHANNELS 3 Zrotation Xrotation Yrotation
                  End Site
                  {
                    OFFSET -1.69225 -0.51767 -0.607171
                  }
                }
              }
            }
          }
        }
      }
      JOINT lCollar
      {
        OFFSET 2.68224 19.2634 -4.8768
        CHANNELS 3 Zrotation Xrotation Yrotation
        JOINT lShldr
        {
          OFFSET 8.77824 -1.95073 1.46304
          CHANNELS 3 Zrotation Xrotation Yrotation
          JOINT lForeArm
          {
            OFFSET 28.1742 -1.7115 0.48768
            CHANNELS 3 Zrotation Xrotation Yrotation
            JOINT lHand
            {
              OFFSET 22.5879 0.773209 7.07136
              CHANNELS 3 Zrotation Xrotation Yrotation
              JOINT lThumb1
              {
                OFFSET 1.2192 -0.487915 3.41376
                CHANNELS 3 Zrotation Xrotation Yrotation
                JOINT lThumb2
                {
                  OFFSET 3.37035 -0.52449 3.41376
                  CHANNELS 3 Zrotation Xrotation Yrotation
                  End Site
                  {
                    OFFSET 1.78271 -1.18214 1.43049
                  }
                }
              }
              JOINT lIndex1
              {
                OFFSET 7.75947 0.938293 5.60832
                CHANNELS 3 Zrotation Xrotation Yrotation
                JOINT lIndex2
                {
                  OFFSET 2.54057 -0.884171 1.56538
                  CHANNELS 3 Zrotation Xrotation Yrotation
                  End Site
                  {
                    OFFSET 1.62519 -0.234802 1.16502
                  }
                }
              }
              JOINT lMid1
              {
                OFFSET 8.24714 1.18213 3.41376
                CHANNELS 3 Zrotation Xrotation Yrotation
                JOINT lMid2
                {
                  OFFSET 3.10165 -0.590103 1.0647
                  CHANNELS 3 Zrotation Xrotation Yrotation
                  End Site
                  {
                    OFFSET 2.48547 -0.328903 0.83742
                  }
                }
              }
              JOINT lRing1
              {
                OFFSET 8.82822 0.546677 1.51678
                CHANNELS 3 Zrotation Xrotation Yrotation
                JOINT lRing2
                {
                  OFFSET 2.60934 -0.819778 -0.0198488
                  CHANNELS 3 Zrotation Xrotation Yrotation
                  End Site
                  {
                    OFFSET 2.33842 -0.294052 0.168128
                  }
                }
              }
              JOINT lPinky1
              {
                OFFSET 8.27202 -0.0477905 -0.4584
                CHANNELS 3 Zrotation Xrotation Yrotation
                JOINT lPinky2
                {
                  OFFSET 1.82734 -0.647385 -0.700984
                  CHANNELS 3 Zrotation Xrotation Yrotation
                  End Site
                  {
                    OFFSET 1.69225 -0.51767 -0.607171
                  }
                }
              }
            }
          }
        }
      }
    }
  }
  JOINT rButtock
  {
    OFFSET -8.77824 4.35084 1.2192
    CHANNELS 3 Zrotation Xrotation Yrotation
    JOINT rThigh
    {
      OFFSET 0 -1.70687 -2.19456
      CHANNELS 3 Zrotation Xrotation Yrotation
      JOINT rShin
      {
        OFFSET 0 -36.8199 0.73152
        CHANNELS 3 Zrotation Xrotation Yrotation
        JOINT rFoot
        {
          OFFSET 0.73152 -45.1104 -5.12064
          CHANNELS 3 Zrotation Xrotation Yrotation
          End Site
          {
            OFFSET -1.1221 -3.69964 12.103
          }
        }
      }
    }
  }
  JOINT lButtock
  {
    OFFSET 8.77824 4.35084 1.2192
    CHANNELS 3 Zrotation Xrotation Yrotation
    JOINT lThigh
    {
      OFFSET 0 -1.70687 -2.19456
      CHANNELS 3 Zrotation Xrotation Yrotation
      JOINT lShin
      {
        OFFSET 0 -36.8199 0.73152
        CHANNELS 3 Zrotation Xrotation Yrotation
        JOINT lFoot
        {
          OFFSET -0.73152 -45.1104 -5.12064
          CHANNELS 3 Zrotation Xrotation Yrotation
          End Site
          {
            OFFSET 1.1221 -3.69964 12.103
          }
        }
      }
    }
  }
}
MOTION
Frames:	9
Frame Time:	0.00833333
54.3214 85.5068 170.943 0.0 0.0 0.0 2.23596 -0.000457886 0.060447 0.615854 0.00897796 0.1066 -4.50209e-14 0.0 7.25552e-23 -1.34481e-13 3.18055e-15 -7.45443e-17 -0.0 0.0 0.0 -0.0 0.0 0.0 -2.23644e-14 1.66948e-16 4.96962e-17 -4.69359e-13 3.39176e-15 -5.96354e-16 -8.12438e-12 2.55319e-12 8.90555e-14 -9.30082e-11 -1.78663e-12 -1.81292e-13 -2.1939e-10 1.66515e-12 -1.78111e-13 -3.78873e-10 2.88158e-12 -3.07719e-13 -2.19384e-10 1.66701e-12 -1.87653e-13 7.73091 5.47488 0.417314 -2.1939e-10 1.66462e-12 -1.74931e-13 2.90554 0.965183 0.102902 -2.19385e-10 1.66591e-12 -1.82882e-13 10.2786 0.731801 0.0259123 -2.19394e-10 1.66701e-12 -1.74931e-13 2.22167 -0.733487 -0.20892 -2.23637e-14 1.68889e-16 -9.93923e-17 -4.75945e-13 3.39798e-15 -2.78299e-15 -8.13034e-12 -2.30928e-12 5.40694e-14 -9.30144e-11 3.08546e-12 -1.49486e-13 -2.1941e-10 1.68431e-12 -1.90833e-13 -3.78906e-10 2.91339e-12 -3.07719e-13 -2.19416e-10 1.68768e-12 -1.74931e-13 -7.73091 5.47488 -0.417314 -2.1941e-10 1.6839e-12 -1.94014e-13 -2.90554 0.965183 -0.102902 -2.19418e-10 1.6843e-12 -1.85267e-13 -10.2786 0.731801 -0.0259123 -2.19408e-10 1.68609e-12 -1.87653e-13 -2.22167 -0.733487 0.20892 -2.03217e-16 0.0 -3.88251e-19 2.21164 -7.80171 -0.224245 0.0052214 8.5597 0.13588 -0.548708 -0.766595 0.0462226 2.03217e-16 0.0 3.88251e-19 1.18403 -1.92859 -0.00254286 0.00909039 -2.07858 0.0749756 0.51365 3.99847 -0.140556
54.6075 84.8627 157.896 -176.614 -3.3962 -177.578 2.55902 -3.50707 -0.369743 0.172086 1.40936 -0.0457929 -0.449587 5.60513 -0.777844 2.0043 -11.9409 -0.951258 -0.0 0.0 0.0 -0.0 0.0 0.0 -7.64029e-14 -1.62785e-14 -2.98499e-14 21.6449 9.61761 -2.21585 -3.4713 -1.45266 5.54991 0.0291619 3.87701 0.540668 1.62872e-10 -3.25463e-10 2.34303e-10 2.83513e-10 -5.60608e-10 4.00375e-10 1.62879e-10 -3.25462e-10 2.34294e-10 7.73091 5.47488 0.417314 1.62872e-10 -3.25465e-10 2.34307e-10 2.90554 0.965183 0.102902 1.62879e-10 -3.25464e-10 2.343e-10 10.2786 0.731801 0.0259123 1.62869e-10 -3.25463e-10 2.34309e-10 2.22167 -0.733487 -0.20892 -7.64139e-14 -1.62769e-14 -2.99831e-14 -20.3204 15.2011 -1.29034 2.8678 -1.11515 -4.66295 -0.00612125 -1.73623 0.243607 2.18231e-10 4.76812e-10 2.61146e-10 3.75476e-10 8.2396e-10 4.52958e-10 2.18225e-10 4.76815e-10 2.61158e-10 -7.73091 5.47488 -0.417314 2.18233e-10 4.76812e-10 2.61142e-10 -2.90554 0.965183 -0.102902 2.18221e-10 4.76814e-10 2.6115e-10 -10.2786 0.731801 -0.0259123 2.18231e-10 4.76814e-10 2.61145e-10 -2.22167 -0.733487 0.20892 -2.03217e-16 0.0 -3.88251e-19 -0.126625 -2.33236 5.80659 0.0105549 6.24204 0.155826 -2.57112 -12.2831 -9.2535 2.03217e-16 0.0 3.88251e-19 8.06248 0.892915 -3.45062 0.00311572 -2.73627 0.0140753 0.48781 -4.78331 -0.301175
54.6522 84.8641 157.891 -176.414 -3.4475 -177.605 2.84262 -7.21346 -0.834117 -0.286584 2.89547 -0.208351 -0.75265 11.5411 -1.62353 3.65278 -24.5854 -2.10119 -0.0 0.0 0.0 -0.0 0.0 0.0 -1.38748e-13 -3.57084e-14 -6.25209e-14 45.3611 19.6842 -4.75863 -6.82253 -2.9339 11.4064 -0.021623 8.06909 1.134 5.78206e-10 -6.91682e-10 5.05295e-10 1.00328e-09 -1.1915e-09 8.63693e-10 5.78213e-10 -6.91683e-10 5.05288e-10 7.73091 5.47488 0.417314 5.78205e-10 -6.91687e-10 5.053e-10 2.90554 0.965183 0.102902 5.78215e-10 -6.91686e-10 5.05294e-10 10.2786 0.731801 0.0259123 5.78205e-10 -6.91686e-10 5.05304e-10 2.22167 -0.733487 -0.20892 -1.38771e-13 -3.57072e-14 -6.26358e-14 -40.9517 31.2126 -2.99332 5.68822 -2.26099 -9.57462 0.00348207 -3.56623 0.501129 7.23522e-10 1.01951e-09 5.4754e-10 1.24657e-09 1.76185e-09 9.49778e-10 7.23517e-10 1.01951e-09 5.47549e-10 -7.73091 5.47488 -0.417314 7.23527e-10 1.01951e-09 5.47535e-10 -2.90554 0.965183 -0.102902 7.23511e-10 1.01951e-09 5.47542e-10 -10.2786 0.731801 -0.0259123 7.23521e-10 1.01951e-09 5.47536e-10 -2.22167 -0.733487 0.20892 -2.03217e-16 0.0 -3.88251e-19 -3.84355 3.34645 12.1849 0.0179657 3.78793 0.176963 -9.02092 -23.4012 -20.3867 2.03217e-16 0.0 3.88251e-19 15.7046 3.84696 -7.09934 -0.00467399 -3.42843 -0.0501 0.399162 -14.0602 -0.503565
54.6627 84.871 157.877 -176.324 -3.5185 -177.668 3.04496 -10.5181 -1.24904 -0.693057 4.21006 -0.351487 -0.875006 16.8027 -2.42601 4.58932 -35.7784 -3.44219 -0.0 0.0 0.0 -0.0 0.0 0.0 -1.8448e-13 -4.91695e-14 -8.96492e-14 67.4249 28.6677 -7.47464 -9.58093 -4.19472 16.6904 -0.135908 11.6269 1.6522 9.27396e-10 -9.79718e-10 7.03265e-10 1.60829e-09 -1.68759e-09 1.20174e-09 9.27404e-10 -9.7972e-10 7.03259e-10 7.73091 5.47488 0.417314 9.27394e-10 -9.79725e-10 7.03271e-10 2.90554 0.965183 0.102902 9.27407e-10 -9.79723e-10 7.03266e-10 10.2786 0.731801 0.0259123 9.27396e-10 -9.79724e-10 7.03277e-10 2.22167 -0.733487 -0.20892 -1.84514e-13 -4.91686e-14 -8.97505e-14 -58.1682 45.4901 -5.33258 8.06412 -3.25693 -14.0093 0.0260832 -5.20831 0.733513 1.09351e-09 1.42707e-09 7.8382e-10 1.88424e-09 2.46605e-09 1.35949e-09 1.09351e-09 1.42707e-09 7.83824e-10 -7.73091 5.47488 -0.417314 1.09352e-09 1.42707e-09 7.83813e-10 -2.90554 0.965183 -0.102902 1.0935e-09 1.42707e-09 7.8382e-10 -10.2786 0.731801 -0.0259123 1.09351e-09 1.42707e-09 7.83812e-10 -2.22167 -0.733487 0.20892 -2.03217e-16 0.0 -3.88251e-19 -8.22027 8.15499 18.0382 0.0261045 1.60673 0.196052 -18.9039 -31.3355 -32.3695 2.03217e-16 0.0 3.88251e-19 22.8373 6.434 -10.4118 -0.0130376 -4.05163 -0.107944 0.276226 -22.3457 -0.670286
54.6785 84.8723 157.845 -176.212 -3.5767 -177.807 3.1607 -12.8204 -1.52169 -0.985286 5.09593 -0.445116 -0.886466 20.3903 -3.03194 4.80988 -43.3831 -4.71786 -0.0 0.0 0.0 -0.0 0.0 0.0 -1.88679e-13 -4.77087e-14 -1.02921e-13 83.5863 35.1081 -9.88749 -11.4267 -5.05459 20.5056 -0.232484 13.6035 1.94898 1.11123e-09 -1.0723e-09 7.18678e-10 1.92638e-09 -1.84669e-09 1.2266e-09 1.11123e-09 -1.0723e-09 7.18672e-10 7.73091 5.47488 0.417314 1.11122e-09 -1.0723e-09 7.18685e-10 2.90554 0.965183 0.102902 1.11124e-09 -1.0723e-09 7.1868e-10 10.2786 0.731801 0.0259123 1.11123e-09 -1.0723e-09 7.18691e-10 2.22167 -0.733487 -0.20892 -1.88726e-13 -4.77079e-14 -1.0302e-13 -68.8401 55.5264 -8.08259 9.69611 -3.95875 -17.2328 0.0501989 -6.38093 0.900544 1.12525e-09 1.49678e-09 8.94811e-10 1.93835e-09 2.58606e-09 1.55142e-09 1.12525e-09 1.49678e-09 8.94814e-10 -7.73091 5.47488 -0.417314 1.12526e-09 1.49677e-09 8.94805e-10 -2.90554 0.965183 -0.102902 1.12524e-09 1.49678e-09 8.94811e-10 -10.2786 0.731801 -0.0259123 1.12525e-09 1.49678e-09 8.94801e-10 -2.22167 -0.733487 0.20892 -2.03217e-16 0.0 -3.88251e-19 -11.8564 11.2801 22.2981 0.0326179 0.107788 0.209685 -28.0904 -35.1384 -42.0141 2.03217e-16 0.0 3.88251e-19 27.9851 8.20377 -12.814 -0.0199297 -4.5024 -0.149788 0.217086 -28.1542 -0.690982
54.74 84.848 157.853 -176.074 -3.1414 -177.867 3.19313 -13.7315 -1.61217 -1.12842 5.37796 -0.477834 -0.917299 21.634 -3.29851 4.78539 -45.9594 -5.35301 -0.0 0.0 0.0 -0.0 0.0 0.0 -1.19684e-13 -1.86484e-14 -9.61873e-14 90.5084 38.2096 -11.2863 -12.2537 -5.46827 22.2717 -0.224042 13.2077 1.89056 1.05612e-09 -8.35652e-10 3.94033e-10 1.82956e-09 -1.4379e-09 6.67285e-10 1.05613e-09 -8.35651e-10 3.94025e-10 7.73091 5.47488 0.417314 1.05612e-09 -8.35657e-10 3.94039e-10 2.90554 0.965183 0.102902 1.05613e-09 -8.35656e-10 3.94034e-10 10.2786 0.731801 0.0259123 1.05612e-09 -8.35656e-10 3.94044e-10 2.22167 -0.733487 -0.20892 -1.19743e-13 -1.86474e-14 -9.63011e-14 -72.2813 59.7736 -9.78009 10.4421 -4.30205 -18.7431 0.0621731 -6.87314 0.970978 5.3961e-10 9.75756e-10 8.24235e-10 9.27089e-10 1.68435e-09 1.4273e-09 5.39607e-10 9.75758e-10 8.2424e-10 -7.73091 5.47488 -0.417314 5.3962e-10 9.75755e-10 8.24231e-10 -2.90554 0.965183 -0.102902 5.39599e-10 9.75759e-10 8.24236e-10 -10.2786 0.731801 -0.0259123 5.3961e-10 9.75755e-10 8.24227e-10 -2.22167 -0.733487 0.20892 -2.03217e-16 0.0 -3.88251e-19 -13.3941 12.4821 24.0823 0.0356684 -0.462965 0.217582 -32.1818 -36.1513 -46.0681 2.03217e-16 0.0 3.88251e-19 30.0446 8.87291 -13.8801 -0.0234746 -4.6974 -0.168854 0.335648 -30.4224 -0.442922
54.8901 84.8126 157.94 -175.91 -1.7015 -177.899 3.17811 -13.6487 -1.56745 -1.1663 5.22888 -0.466441 -1.0032 21.2069 -3.30293 4.83653 -44.9612 -5.3239 -0.0 0.0 0.0 -0.0 0.0 0.0 8.77804e-16 2.98063e-14 -7.51934e-14 90.4887 38.9759 -11.7121 -12.4119 -5.59602 22.5659 -0.14862 11.1247 1.58207 8.30708e-10 -3.66498e-10 -1.69488e-10 1.437e-09 -6.28036e-10 -3.02368e-10 8.30712e-10 -3.66494e-10 -1.695e-10 7.73091 5.47488 0.417314 8.30702e-10 -3.66499e-10 -1.69483e-10 2.90554 0.965183 0.102902 8.30716e-10 -3.66499e-10 -1.69489e-10 10.2786 0.731801 0.0259123 8.30708e-10 -3.66499e-10 -1.69481e-10 2.22167 -0.733487 -0.20892 8.05684e-16 2.98079e-14 -7.53332e-14 -71.537 59.9477 -9.81669 10.5959 -4.40787 -19.0261 0.0620053 -6.88054 0.972016 -4.80162e-10 3.83966e-11 6.24262e-10 -8.33333e-10 6.2542e-11 1.07794e-09 -4.80166e-10 3.8397e-11 6.2427e-10 -7.73091 5.47488 -0.417314 -4.80152e-10 3.83952e-11 6.24262e-10 -2.90554 0.965183 -0.102902 -4.80172e-10 3.83957e-11 6.24265e-10 -10.2786 0.731801 -0.0259123 -4.8016e-10 3.83935e-11 6.24258e-10 -2.22167 -0.733487 0.20892 -2.03217e-16 0.0 -3.88251e-19 -13.187 12.4321 24.0221 0.0358571 -0.369446 0.22121 -31.8171 -36.0604 -45.7074 2.03217e-16 0.0 3.88251e-19 29.8206 8.78085 -13.9759 -0.0242949 -4.71038 -0.171633 0.579591 -30.1641 -0.000925448
54.7545 84.7117 157.833 -175.976 -3.2585 -177.82 3.16709 -13.152 -1.42042 -1.15585 4.91327 -0.422912 -1.09692 20.1258 -3.20038 4.88874 -42.6031 -5.04323 -0.0 0.0 0.0 -0.0 0.0 0.0 1.17987e-13 7.52846e-14 -4.94644e-14 87.5541 38.6846 -11.639 -12.2852 -5.5965 22.2214 -0.0845348 8.62455 1.21996 5.4905e-10 1.06737e-10 -6.93393e-10 9.47323e-10 1.88463e-10 -1.20299e-09 5.49054e-10 1.06743e-10 -6.93408e-10 7.73091 5.47488 0.417314 5.49044e-10 1.06739e-10 -6.93389e-10 2.90554 0.965183 0.102902 5.49056e-10 1.06738e-10 -6.93395e-10 10.2786 0.731801 0.0259123 5.4905e-10 1.06739e-10 -6.93389e-10 2.22167 -0.733487 -0.20892 1.17902e-13 7.52866e-14 -4.96348e-14 -69.2006 58.4492 -9.11592 10.5235 -4.42606 -18.8267 0.057344 -6.73148 0.950593 -1.44347e-09 -8.77123e-10 3.82393e-10 -2.49598e-09 -1.52117e-09 6.5638e-10 -1.44348e-09 -8.77123e-10 3.82403e-10 -7.73091 5.47488 -0.417314 -1.44346e-09 -8.77125e-10 3.82397e-10 -2.90554 0.965183 -0.102902 -1.44348e-09 -8.77127e-10 3.82397e-10 -10.2786 0.731801 -0.0259123 -1.44347e-09 -8.77127e-10 3.82391e-10 -2.22167 -0.733487 0.20892 -2.03217e-16 0.0 -3.88251e-19 -12.2882 11.8249 23.2086 0.0342974 0.0329523 0.219701 -29.5614 -35.5037 -43.4881 2.03217e-16 0.0 3.88251e-19 28.6686 8.43504 -13.6968 -0.0239798 -4.6736 -0.168336 0.829043 -29.0107 0.473299
54.6667 84.6194 157.805 -176.152 -3.801 -177.754 3.21095 -12.8211 -1.20416 -1.154 4.69569 -0.359202 -1.14989 19.4076 -3.14571 4.87275 -41.0988 -4.91253 -0.0 0.0 0.0 -0.0 0.0 0.0 1.76625e-13 9.54155e-14 -2.85256e-14 85.8604 38.5911 -11.6397 -12.2393 -5.61793 22.0741 -0.06012 6.97946 0.985829 3.25218e-10 3.55621e-10 -8.9919e-10 5.59144e-10 6.17168e-10 -1.55521e-09 3.25221e-10 3.55628e-10 -8.99206e-10 7.73091 5.47488 0.417314 3.25212e-10 3.55625e-10 -8.99187e-10 2.90554 0.965183 0.102902 3.25222e-10 3.55624e-10 -8.99193e-10 10.2786 0.731801 0.0259123 3.25217e-10 3.55625e-10 -8.99187e-10 2.22167 -0.733487 -0.20892 1.76527e-13 9.54174e-14 -2.87244e-14 -67.6632 57.6659 -8.79476 10.5785 -4.50038 -18.8909 0.0562812 -6.75431 0.953722 -1.85973e-09 -1.33262e-09 1.86126e-10 -3.21392e-09 -2.3086e-09 3.1563e-10 -1.85974e-09 -1.33262e-09 1.86139e-10 -7.73091 5.47488 -0.417314 -1.85973e-09 -1.33262e-09 1.86132e-10 -2.90554 0.965183 -0.102902 -1.85974e-09 -1.33263e-09 1.86132e-10 -10.2786 0.731801 -0.0259123 -1.85973e-09 -1.33263e-09 1.86126e-10 -2.22167 -0.733487 0.20892 -2.03217e-16 0.0 -3.88251e-19 -11.777 11.341 22.742 0.0322994 0.388835 0.212189 -28.0303 -35.0537 -41.9896 2.03217e-16 0.0 3.88251e-19 27.9527 8.33943 -13.6393 -0.0241869 -4.71931 -0.169179 1.01873 -28.5952 0.845001
